<svg xmlns="http://www.w3.org/2000/svg" viewBox="0 0 512 512" width="512" height="512">
  <defs>
    <linearGradient id="bgGrad" x1="0%" y1="0%" x2="100%" y2="100%">
      <stop offset="0%" stop-color="#0f172a" />
      <stop offset="50%" stop-color="#134e4a" />
      <stop offset="100%" stop-color="#042f2e" />
    </linearGradient>
    <linearGradient id="brandGrad" x1="0%" y1="0%" x2="100%" y2="100%">
      <stop offset="0%" stop-color="#14b8a6" />
      <stop offset="50%" stop-color="#06b6d4" />
      <stop offset="100%" stop-color="#10b981" />
    </linearGradient>
    <linearGradient id="accentGrad" x1="0%" y1="100%" x2="100%" y2="0%">
      <stop offset="0%" stop-color="#f59e0b" />
      <stop offset="100%" stop-color="#10b981" />
    </linearGradient>
    <filter id="glow" x="-20%" y="-20%" width="140%" height="140%">
      <feGaussianBlur stdDeviation="12" result="blur" />
      <feComposite in="SourceGraphic" in2="blur" operator="over" />
    </filter>
  </defs>

  <!-- Background with subtle rounded corners for standard view -->
  <rect width="512" height="512" rx="108" fill="url(#bgGrad)" />

  <!-- Hexagonal Biomechanical Shield Border -->
  <path d="M 256 64 L 416 144 L 416 320 L 256 448 L 96 320 L 96 144 Z"
        fill="none" stroke="url(#brandGrad)" stroke-width="12" stroke-linejoin="round" opacity="0.4" />

  <!-- Inner Protective Adaptive Shield -->
  <path d="M 256 94 L 384 160 L 384 304 L 256 414 L 128 304 L 128 160 Z"
        fill="#042f2e" stroke="url(#brandGrad)" stroke-width="16" stroke-linejoin="round" />

  <!-- Dynamic Adaptive Pulse & Motion Symbol (Biomechanics + Progress) -->
  <!-- Left wing / barbell node -->
  <circle cx="196" cy="256" r="24" fill="url(#brandGrad)" />
  <!-- Right wing / barbell node -->
  <circle cx="316" cy="256" r="24" fill="url(#brandGrad)" />
  
  <!-- Central Energy Core / Ascending Barbell Bar with Dynamic Crest -->
  <path d="M 196 256 L 232 256 L 256 184 L 276 312 L 296 256 L 316 256"
        fill="none" stroke="#f8fafc" stroke-width="18" stroke-linecap="round" stroke-linejoin="round" filter="url(#glow)" />

  <!-- Top Crown: Adaptive Precision Marker -->
  <circle cx="256" cy="144" r="16" fill="url(#accentGrad)" />

  <!-- Bottom Stability Dot -->
  <circle cx="256" cy="360" r="12" fill="#14b8a6" />
</svg>